<?xml version="1.0" standalone="no"?>
<!DOCTYPE svg PUBLIC "-//W3C//DTD SVG 20010904//EN"
 "http://www.w3.org/TR/2001/REC-SVG-20010904/DTD/svg10.dtd">
<svg version="1.0" xmlns="http://www.w3.org/2000/svg"
 width="1402.000000pt" height="1122.000000pt" viewBox="0 0 1402.000000 1122.000000"
 preserveAspectRatio="xMidYMid meet">

<g transform="translate(0.000000,1122.000000) scale(0.100000,-0.100000)"
fill="#000000" stroke="none">
<path d="M10680 10117 c-30 -39 -134 -170 -231 -291 -705 -885 -815 -1023
-1028 -1281 -208 -252 -423 -508 -510 -609 -47 -54 -104 -120 -126 -146 -141
-168 -241 -286 -245 -290 -3 -3 -46 -52 -95 -110 -49 -58 -94 -110 -100 -116
-5 -7 -23 -29 -40 -50 -16 -22 -57 -66 -90 -99 -56 -56 -89 -74 -515 -289
-600 -302 -656 -334 -794 -465 -38 -36 -65 -59 -61 -51 8 13 6 13 -7 2 -9 -8
-34 -48 -54 -90 -41 -84 -56 -168 -32 -177 8 -3 84 26 169 65 232 108 693 304
784 334 115 39 222 52 289 37 236 -53 254 -347 42 -704 -290 -489 -899 -856
-2276 -1372 -151 -57 -324 -120 -384 -141 -60 -22 -102 -40 -94 -42 16 -3 502
100 723 153 77 19 273 66 435 105 162 39 419 100 570 137 151 36 298 66 325
66 58 1 104 -20 131 -60 18 -26 19 -49 17 -420 -1 -216 1 -393 6 -393 5 0 53
62 108 138 55 75 193 265 308 422 115 157 257 353 317 435 149 207 162 222
200 230 38 8 1386 344 1622 404 247 64 280 92 297 253 27 266 183 1969 224
2448 30 358 77 876 111 1235 19 204 41 451 49 550 8 99 16 197 19 218 2 20 1
37 -2 36 -4 0 -32 -32 -62 -72z m-837 -4217 c-5 -4 -33 -12 -63 -20 -54 -13
-418 -111 -1300 -353 -250 -68 -471 -128 -490 -132 l-35 -7 36 38 c20 22 62
73 92 115 64 88 28 71 377 169 102 28 302 84 445 125 143 40 368 103 500 140
132 36 246 68 253 70 9 4 12 261 12 1242 l0 1238 88 108 87 108 3 -1417 c1
-780 -1 -1421 -5 -1424z m-303 1366 l0 -1103 -642 -183 c-354 -101 -648 -185
-654 -187 -7 -2 -1 17 12 44 14 26 30 65 36 86 7 22 21 43 32 48 12 5 210 66
441 135 231 69 464 138 518 155 l97 30 0 942 0 942 78 97 c42 54 78 98 80 98
1 0 2 -497 2 -1104z m-290 -61 c0 -630 -3 -815 -12 -815 -11 0 -138 -39 -707
-215 -96 -30 -176 -53 -177 -52 -1 1 0 25 3 53 l5 51 362 145 361 145 5 656 5
656 75 95 c41 53 76 96 78 96 1 0 2 -367 2 -815z"/>
<path d="M10385 10071 c-282 -165 -1291 -681 -2090 -1069 -203 -99 -651 -318
-995 -487 -344 -170 -743 -365 -888 -435 -145 -70 -262 -131 -260 -136 3 -8
212 -146 575 -378 78 -50 140 -92 139 -94 -2 -1 -115 61 -252 139 -572 326
-691 393 -934 531 -279 158 -790 454 -1050 608 -91 54 -352 206 -580 337 -228
132 -431 250 -452 262 -20 12 -38 18 -41 14 -9 -16 62 -250 89 -291 23 -36 33
-42 61 -42 63 0 153 -64 153 -109 0 -24 99 -93 145 -102 22 -5 66 -8 99 -9 48
0 64 -5 89 -26 28 -23 37 -26 84 -20 48 6 53 4 70 -20 10 -14 30 -41 46 -59
18 -22 27 -44 27 -68 0 -30 6 -39 35 -57 39 -24 44 -44 15 -60 -25 -14 -43
-47 -36 -67 6 -14 9 -14 26 2 18 16 21 16 61 -6 30 -17 45 -34 53 -59 8 -27
19 -38 45 -46 19 -6 44 -23 55 -36 12 -14 31 -29 43 -32 12 -4 28 -19 35 -34
8 -16 33 -36 60 -49 33 -16 49 -30 54 -48 4 -15 23 -37 46 -51 45 -29 56 -49
40 -75 -19 -30 -14 -49 17 -60 16 -6 41 -28 55 -49 14 -22 42 -54 61 -71 19
-18 35 -38 35 -46 0 -7 5 -13 11 -13 10 0 9 38 -3 105 -2 16 3 21 27 23 23 2
37 -4 60 -28 25 -26 29 -38 30 -95 2 -84 22 -110 77 -101 31 5 39 2 57 -20 12
-15 21 -33 21 -40 0 -7 11 -21 24 -29 27 -18 32 -28 51 -100 14 -53 6 -79 -21
-68 -17 6 -19 -13 -2 -23 6 -4 19 3 29 15 l19 23 34 -21 c21 -13 50 -21 80
-21 49 0 86 -24 86 -57 0 -18 -76 -73 -100 -73 -7 0 -19 8 -26 17 -17 25 -30
8 -16 -21 9 -20 17 -24 49 -22 54 4 94 22 123 56 24 29 26 29 66 17 42 -12
127 -92 121 -112 -2 -5 -14 -12 -28 -13 -13 -2 -28 -10 -32 -18 -4 -8 -16 -14
-26 -14 -19 0 -61 -39 -61 -57 0 -5 9 -18 20 -28 25 -23 25 -41 0 -48 -11 -3
-20 -9 -20 -15 0 -18 41 -62 59 -62 9 0 34 -9 56 -20 22 -11 47 -18 55 -15 9
3 25 -4 35 -15 16 -18 17 -26 8 -66 -10 -42 -8 -52 15 -97 l25 -51 -21 -38
c-22 -41 -13 -49 26 -22 19 13 27 13 60 2 57 -20 90 -48 103 -87 16 -48 45
-88 69 -96 29 -9 27 -53 -4 -65 -33 -12 -69 -74 -63 -108 3 -17 -1 -34 -11
-45 -13 -15 -14 -22 -4 -37 19 -30 14 -50 -13 -60 -33 -13 -40 -34 -21 -62 15
-21 14 -24 -10 -49 -24 -25 -25 -29 -13 -63 12 -34 11 -37 -14 -64 -24 -25
-27 -36 -27 -95 0 -56 -3 -68 -20 -77 -11 -6 -20 -21 -20 -33 0 -28 -29 -68
-36 -50 -7 17 -64 87 -64 79 0 -3 5 -15 12 -25 10 -16 7 -26 -15 -58 -15 -22
-27 -44 -27 -51 0 -7 -9 -12 -19 -12 -14 0 -28 18 -50 65 -17 36 -31 69 -31
74 0 4 -10 20 -21 35 -16 21 -27 26 -45 22 -31 -8 -80 34 -88 77 -7 37 -39 71
-106 112 -53 32 -70 51 -70 80 0 25 -29 55 -52 55 -26 0 -65 38 -71 68 -4 18
-26 46 -60 75 -44 37 -57 56 -66 94 -8 29 -24 59 -44 78 -20 19 -37 50 -45 79
-10 38 -26 62 -71 106 -73 71 -81 86 -80 147 2 53 -26 119 -67 163 -14 15 -28
47 -33 75 -7 39 -17 57 -46 80 -22 19 -34 36 -30 46 3 9 -7 26 -25 44 -21 20
-30 38 -30 61 0 26 -10 43 -46 79 -28 27 -55 45 -69 45 -34 0 -46 23 -55 97
-4 38 -19 96 -34 130 -14 34 -26 74 -26 87 0 14 -7 29 -16 34 -13 7 -14 13 -5
31 17 30 7 53 -31 75 -18 10 -54 39 -80 64 -36 35 -57 47 -89 51 -60 9 -77 36
-85 141 -7 94 -13 105 -60 125 -25 10 -35 23 -49 64 -9 28 -21 54 -27 57 -6 4
-21 30 -33 58 -29 66 -44 78 -99 78 -50 0 -55 4 -107 91 -23 40 -47 65 -76 82
-24 13 -43 19 -43 12 0 -13 78 -303 125 -467 18 -63 54 -194 79 -290 25 -96
69 -258 96 -360 28 -102 78 -288 111 -415 33 -126 74 -282 90 -345 60 -227
396 -1549 459 -1805 31 -125 51 -189 59 -187 6 1 125 62 264 136 139 74 419
219 622 323 204 105 388 200 410 213 53 31 40 18 -154 -146 -449 -379 -1072
-927 -1176 -1034 -70 -72 -70 -72 -35 -65 68 15 412 135 607 213 261 105 405
169 714 318 987 476 1497 826 1629 1117 23 50 26 127 5 167 -18 36 -72 54
-134 47 -25 -3 -192 -57 -371 -120 -179 -63 -389 -134 -467 -158 -78 -24 -138
-46 -133 -49 6 -3 -6 -6 -26 -6 -19 0 -39 -6 -43 -12 -4 -8 -15 -10 -26 -6
-13 5 -16 4 -11 -4 4 -7 1 -12 -6 -12 -61 -3 -114 -12 -162 -31 -32 -11 -59
-19 -60 -17 -3 4 82 227 160 417 212 516 327 711 499 847 76 61 159 106 760
417 640 330 595 299 869 598 251 273 651 720 931 1039 55 63 157 177 226 255
69 77 195 219 280 316 85 96 244 276 354 400 185 206 222 249 213 249 -2 0
-48 -27 -103 -59z m-6284 -2181 c21 -12 25 -35 8 -46 -14 -8 -53 31 -45 45 9
14 12 14 37 1z m-61 -51 c0 -18 -2 -19 -15 -9 -8 7 -15 16 -15 21 0 5 7 9 15
9 9 0 15 -9 15 -21z m1364 -58 c12 -14 14 -24 7 -43 -12 -32 -29 -44 -73 -52
-35 -6 -37 -5 -48 29 -14 44 -7 69 18 61 10 -4 27 1 38 9 26 19 38 19 58 -4z
m-1266 -57 c2 -10 24 -39 48 -64 l43 -45 -3 -74 c-2 -48 -8 -76 -17 -82 -19
-11 -49 18 -49 49 0 16 -14 38 -40 62 -22 20 -40 46 -40 57 0 11 -11 30 -25
43 -34 31 -32 40 9 40 26 0 36 5 41 21 8 24 29 20 33 -7z m1388 -142 c2 -58
40 -122 73 -122 21 0 75 -39 66 -48 -10 -11 -108 0 -130 14 -22 14 -45 87 -45
141 0 20 -3 23 -14 14 -11 -9 -17 -6 -30 14 -23 34 -14 44 37 41 l42 -2 1 -52z
m60 -27 c10 -8 33 -15 50 -15 46 0 60 -21 34 -51 -15 -17 -23 -20 -26 -11 -3
6 -15 12 -27 12 -26 0 -67 38 -67 62 0 22 10 23 36 3z m410 -129 c-3 -11 -2
-25 3 -30 4 -6 5 -22 2 -35 -6 -23 -7 -22 -34 17 -29 45 -34 71 -15 90 17 17
51 -15 44 -42z m-171 24 c21 -23 20 -25 -16 -34 -29 -6 -43 11 -33 39 8 21 28
19 49 -5z m262 -2 c27 -25 29 -41 8 -58 -13 -11 -19 -9 -36 8 -11 12 -24 22
-29 22 -11 0 -14 33 -3 43 12 13 37 7 60 -15z m-270 -73 c2 -6 -8 -12 -22 -13
-24 -2 -32 8 -18 22 10 9 36 3 40 -9z m-1323 -63 c10 -17 -11 -33 -37 -28 -41
7 -54 18 -31 27 26 10 62 11 68 1z m-94 -29 c19 -24 21 -37 17 -87 -3 -33 -12
-65 -21 -74 -14 -14 -17 -14 -36 3 -19 17 -19 19 -3 37 18 20 20 51 9 111 -8
44 4 48 34 10z m1722 -157 c36 -28 29 -42 -18 -38 -47 3 -81 36 -63 59 14 16
43 9 81 -21z m-243 -33 c13 -10 -21 -24 -55 -21 -36 3 -37 4 -20 21 15 15 58
16 75 0z m151 -33 c0 -23 -10 -26 -28 -8 -18 18 -15 28 8 28 13 0 20 -7 20
-20z m-1482 -60 c2 -14 12 -34 21 -45 10 -11 24 -40 31 -65 7 -25 20 -57 29
-72 14 -25 14 -29 -1 -44 -17 -18 -17 -18 -90 35 -27 19 -48 41 -48 49 0 7
-12 33 -26 58 -21 36 -24 47 -14 59 7 8 18 15 24 15 6 0 17 9 24 21 17 27 46
20 50 -11z m1760 -163 c23 -24 25 -33 23 -122 -2 -83 4 -101 39 -115 36 -15
37 -24 5 -66 -14 -18 -25 -46 -25 -63 0 -60 -23 -48 -87 46 -17 25 -23 48 -23
87 0 31 -5 58 -12 64 -7 5 -37 13 -65 17 -29 4 -56 11 -59 17 -7 12 24 48 43
48 9 0 13 13 13 39 0 23 6 44 16 52 14 12 20 9 40 -16 21 -27 24 -28 30 -10 9
25 24 45 33 45 4 0 17 -10 29 -23z m-1570 -129 c7 -7 12 -22 12 -33 0 -12 9
-30 20 -40 26 -23 25 -37 -1 -33 -27 4 -84 81 -76 102 8 19 28 21 45 4z m105
-166 c17 -18 26 -38 26 -57 0 -17 2 -42 4 -57 3 -16 3 -28 -1 -28 -13 0 -42
35 -42 51 0 10 -11 30 -25 45 -13 14 -23 29 -21 33 1 3 6 14 9 24 9 24 19 22
50 -11z m2472 -618 c-328 -113 -608 -205 -612 -200 -2 2 110 42 249 89 139 47
312 106 383 131 72 25 139 46 150 46 11 -1 -65 -30 -170 -66z m-2099 31 c17
-26 13 -55 -8 -55 -16 0 -46 51 -40 68 6 20 30 14 48 -13z m76 -75 c12 -16 27
-30 34 -30 6 0 17 -7 24 -16 11 -13 10 -19 -9 -37 l-23 -22 -16 25 c-9 14 -30
37 -45 53 -17 16 -27 33 -23 42 9 24 34 17 58 -15z m1395 -166 c-3 -3 -12 -4
-19 -1 -8 3 -5 6 6 6 11 1 17 -2 13 -5z"/>
<path d="M3655 8700 c10 -11 20 -20 23 -20 3 0 -3 9 -13 20 -10 11 -20 20 -23
20 -3 0 3 -9 13 -20z"/>
<path d="M3350 8251 c0 -6 -6 -11 -14 -11 -16 0 -26 -21 -26 -56 0 -15 -6 -24
-15 -24 -22 0 -18 -17 4 -23 26 -6 31 0 31 39 0 23 5 33 20 37 21 5 27 31 10
42 -5 3 -10 1 -10 -4z"/>
<path d="M3632 7998 c3 -7 15 -15 28 -16 14 -2 35 -13 49 -23 28 -22 49 -25
32 -5 -14 17 -86 56 -102 56 -6 0 -9 -6 -7 -12z"/>
<path d="M3818 7942 c-19 -4 -26 -52 -8 -52 6 0 10 6 10 14 0 8 5 16 12 18 18
6 5 24 -14 20z"/>
<path d="M3710 7523 c0 -59 16 -70 17 -13 0 27 -3 50 -8 50 -5 0 -9 -17 -9
-37z"/>
<path d="M3600 7520 c8 -5 20 -10 25 -10 6 0 3 5 -5 10 -8 5 -19 10 -25 10 -5
0 -3 -5 5 -10z"/>
<path d="M3705 7420 c-3 -5 1 -10 10 -10 9 0 13 5 10 10 -3 6 -8 10 -10 10 -2
0 -7 -4 -10 -10z"/>
<path d="M3736 7414 c-4 -10 -1 -24 8 -33 14 -13 16 -13 22 3 4 10 1 24 -8 33
-14 13 -16 13 -22 -3z"/>
<path d="M8210 7146 c-25 -19 -191 -107 -370 -196 -714 -359 -834 -430 -961
-574 -51 -58 -28 -51 31 10 125 128 200 173 839 495 309 156 436 225 470 256
55 51 52 53 -9 9z"/>
<path d="M3836 7147 c3 -10 9 -15 12 -12 3 3 0 11 -7 18 -10 9 -11 8 -5 -6z"/>
<path d="M3960 6982 c0 -16 7 -37 16 -48 14 -17 15 -17 10 -1 -3 10 -6 32 -6
48 0 16 -4 29 -10 29 -5 0 -10 -13 -10 -28z"/>
<path d="M3988 6876 c-13 -10 -14 -15 -3 -29 18 -25 35 -21 35 7 0 31 -10 38
-32 22z"/>
<path d="M10695 6829 c100 -53 168 -125 201 -214 28 -74 25 -228 -6 -315 -47
-135 -125 -264 -278 -462 -19 -24 10 2 65 58 212 218 320 414 331 600 4 82 2
97 -20 146 -44 94 -121 154 -247 192 -75 22 -93 20 -46 -5z"/>
<path d="M11139 6724 c57 -65 84 -140 89 -249 7 -152 -39 -281 -167 -467 -268
-391 -763 -763 -1561 -1175 -336 -173 -792 -366 -1230 -520 -102 -35 -191 -70
-199 -76 -23 -19 -123 -148 -119 -153 5 -4 299 94 543 181 747 267 1505 643
2019 1003 520 363 844 744 888 1045 26 169 -65 338 -229 425 -33 17 -64 32
-68 32 -4 0 12 -21 34 -46z"/>
<path d="M3990 6635 c0 -15 18 -40 24 -34 3 3 -1 14 -9 25 -8 10 -14 15 -15 9z"/>
<path d="M5342 6479 c-12 -21 -21 -39 -18 -39 7 0 49 71 44 75 -2 2 -14 -14
-26 -36z"/>
<path d="M4117 6456 c-4 -9 1 -32 9 -52 9 -21 14 -49 11 -63 -7 -35 2 -54 18
-41 10 9 10 21 -1 64 -8 30 -13 64 -12 76 3 26 -17 38 -25 16z"/>
<path d="M5928 5733 c7 -3 16 -2 19 1 4 3 -2 6 -13 5 -11 0 -14 -3 -6 -6z"/>
<path d="M4288 4828 c-104 -85 -289 -278 -346 -360 -88 -128 -123 -214 -129
-312 -5 -75 -3 -89 21 -142 60 -132 188 -212 431 -273 119 -29 200 -39 410
-52 564 -32 1330 59 2055 244 407 105 583 165 284 98 -255 -58 -769 -149
-1019 -181 -680 -86 -1279 -77 -1630 25 -356 104 -474 338 -319 635 44 84 151
217 244 303 41 37 71 67 67 67 -3 0 -34 -23 -69 -52z"/>
<path d="M3064 3411 c-61 -29 -110 -77 -138 -136 -8 -17 -24 -85 -36 -152 -25
-148 -18 -194 39 -253 47 -50 107 -66 285 -79 118 -8 142 -13 159 -30 18 -18
19 -24 8 -60 -6 -22 -17 -44 -24 -48 -6 -4 -124 -10 -262 -13 l-250 -5 -17
-70 c-9 -38 -18 -88 -20 -110 l-3 -40 41 -3 c36 -3 52 4 135 61 143 97 143 97
71 10 -128 -155 -392 -522 -392 -544 0 -5 30 11 68 34 77 50 659 398 743 445
64 36 122 90 145 133 8 17 26 88 40 157 28 149 24 181 -38 248 -52 56 -98 70
-279 82 -74 5 -145 14 -157 21 -28 15 -30 69 -4 101 17 22 22 22 254 21 194
-1 237 1 247 13 12 15 71 207 71 232 0 12 -54 14 -312 14 l-313 0 -61 -29z"/>
<path d="M3915 3430 c-3 -5 -26 -121 -51 -257 -24 -136 -53 -294 -64 -351 -11
-57 -20 -129 -20 -160 0 -113 71 -207 178 -238 41 -12 94 -15 250 -12 l198 3
65 32 c124 62 183 151 218 333 11 58 43 222 71 365 27 143 50 268 50 277 0 16
-13 18 -134 18 -74 0 -137 -4 -140 -8 -5 -8 -48 -228 -97 -502 -17 -91 -36
-176 -42 -189 -23 -46 -62 -65 -143 -69 -131 -7 -184 16 -184 79 0 17 18 122
40 233 73 375 86 446 81 451 -9 9 -270 5 -276 -5z"/>
<path d="M4911 3173 c-28 -148 -72 -371 -96 -498 -25 -126 -45 -238 -45 -247
0 -16 13 -18 129 -18 91 0 132 4 139 13 6 6 20 66 32 132 12 66 29 156 37 200
8 44 18 105 21 135 10 81 28 71 67 -35 62 -167 122 -309 133 -313 5 -1 50 49
99 114 209 277 267 342 249 282 -19 -62 -97 -500 -92 -513 4 -12 28 -15 130
-15 109 0 127 2 135 18 9 17 52 236 96 492 13 74 38 207 55 295 17 88 34 175
37 193 l6 32 -155 0 -155 0 -154 -205 c-85 -113 -158 -204 -163 -202 -5 2 -40
93 -77 203 l-67 199 -154 3 -155 2 -52 -267z"/>
<path d="M6185 3428 c-3 -7 -21 -101 -40 -208 -20 -107 -50 -267 -66 -355 -20
-104 -30 -180 -27 -216 8 -116 85 -207 194 -229 35 -8 126 -10 247 -8 178 3
195 5 237 27 99 51 176 136 206 224 7 23 28 114 44 202 69 359 100 530 100
552 l0 24 -137 -3 -137 -3 -8 -36 c-4 -20 -16 -88 -27 -150 -62 -346 -93 -496
-110 -519 -29 -42 -78 -60 -159 -60 -41 0 -88 6 -107 14 -61 26 -63 45 -25
234 64 321 98 507 93 515 -2 4 -65 7 -139 7 -99 0 -136 -3 -139 -12z"/>
<path d="M7190 3418 c-11 -26 -40 -184 -40 -216 0 -21 3 -22 134 -22 74 0 137
-4 140 -9 6 -9 -1 -47 -114 -619 -34 -173 -59 -316 -57 -319 3 -3 43 25 88 63
46 37 116 82 156 101 58 28 73 40 77 61 3 15 30 158 61 317 31 160 61 315 68
345 l12 55 137 3 138 3 38 122 c22 67 37 125 35 130 -2 4 -198 7 -434 7 l-429
0 -10 -22z"/>
<path d="M11480 2336 c0 -3 9 -10 20 -16 11 -6 20 -8 20 -6 0 3 -9 10 -20 16
-11 6 -20 8 -20 6z"/>
<path d="M11555 2280 c10 -11 20 -20 23 -20 3 0 -3 9 -13 20 -10 11 -20 20
-23 20 -3 0 3 -9 13 -20z"/>
<path d="M11580 2291 c0 -6 4 -13 10 -16 6 -3 7 1 4 9 -7 18 -14 21 -14 7z"/>
<path d="M3908 2049 c-10 -5 -18 -20 -18 -33 0 -21 17 -35 63 -50 32 -10 12
-31 -27 -29 -43 3 -45 -16 -3 -31 34 -12 80 16 75 46 -3 19 -12 27 -57 48 -31
14 -24 32 10 28 37 -4 51 16 17 26 -31 8 -40 7 -60 -5z"/>
<path d="M4106 2053 c-3 -3 -6 -30 -6 -59 0 -42 5 -58 22 -74 28 -25 48 -25
82 1 22 18 26 28 26 75 0 41 -4 54 -15 54 -11 0 -15 -12 -15 -44 0 -56 -8 -76
-29 -76 -29 0 -41 22 -41 71 0 45 -10 66 -24 52z"/>
<path d="M4358 2014 c-27 -63 -39 -104 -28 -104 17 0 61 48 50 55 -12 8 -13
16 0 35 9 13 11 13 20 0 5 -8 7 -23 4 -32 -5 -17 27 -58 47 -58 12 0 7 21 -27
96 -13 30 -29 54 -34 54 -6 0 -20 -21 -32 -46z"/>
<path d="M4572 2051 c-17 -11 -12 -133 6 -139 7 -2 12 6 12 22 0 34 11 33 45
-6 30 -33 45 -25 25 13 -8 13 -8 24 -2 28 5 3 12 16 16 28 14 43 -59 82 -102
54z m75 -37 c7 -18 -12 -34 -39 -34 -13 0 -18 8 -18 25 0 20 5 25 25 25 14 0
28 -7 32 -16z"/>
<path d="M5166 2047 c-30 -22 -17 -60 24 -73 49 -16 46 -40 -3 -37 -44 3 -47
-16 -4 -31 48 -17 102 42 65 71 -7 6 -25 13 -40 17 -41 9 -37 38 4 34 37 -4
50 17 16 26 -33 8 -42 8 -62 -7z"/>
<path d="M5364 2035 c-14 -57 17 -135 54 -135 7 0 27 8 43 17 27 16 29 21 29
80 0 50 -3 61 -15 57 -9 -4 -15 -24 -17 -62 -2 -47 -6 -57 -22 -60 -28 -6 -46
25 -46 74 0 49 -16 67 -26 29z"/>
<path d="M5607 2053 c-4 -3 -7 -27 -7 -52 0 -92 27 -127 32 -43 l3 47 24 -38
24 -39 20 36 c12 20 24 36 28 36 3 0 6 -19 5 -42 -1 -25 4 -43 12 -46 10 -3
12 13 10 69 -2 42 -8 74 -14 76 -6 2 -21 -12 -32 -32 -12 -19 -26 -35 -31 -35
-5 0 -18 16 -30 35 -20 34 -31 42 -44 28z"/>
<path d="M6087 2054 c-10 -11 2 -24 23 -24 16 0 19 -9 22 -55 4 -71 22 -72 26
-1 2 46 6 55 23 58 11 2 20 8 20 13 -1 11 -103 20 -114 9z"/>
<path d="M6323 2053 c-9 -3 -13 -28 -13 -73 l0 -67 41 -6 c23 -3 48 -3 55 0
22 8 4 25 -19 19 -23 -6 -47 9 -47 30 0 9 12 14 35 14 19 0 35 5 35 11 0 7 -9
9 -22 6 -24 -7 -48 8 -48 29 0 8 15 14 37 16 54 5 56 28 1 27 -23 0 -49 -3
-55 -6z"/>
<path d="M6543 2053 c-9 -3 -13 -28 -13 -74 0 -55 3 -69 15 -69 9 0 15 10 15
26 0 32 30 30 45 -4 5 -12 18 -22 28 -22 16 0 16 2 3 23 -13 19 -13 25 0 41
19 27 18 50 -4 69 -18 16 -63 21 -89 10z m72 -48 c0 -31 -49 -28 -53 3 -3 20
0 23 25 20 20 -2 28 -8 28 -23z"/>
<path d="M7266 2039 c-57 -45 -14 -149 57 -135 36 7 52 20 43 34 -4 7 -16 6
-35 -1 -37 -14 -61 3 -61 43 0 36 23 54 60 47 35 -7 49 8 21 22 -30 16 -55 13
-85 -10z"/>
<path d="M7484 2046 c-3 -7 -4 -42 -2 -77 3 -62 4 -64 32 -67 38 -5 81 7 70
18 -5 5 -25 10 -44 12 -46 4 -48 32 -2 36 17 2 32 7 32 12 0 5 -15 10 -32 12
-48 4 -44 32 5 36 24 2 37 8 37 18 0 19 -88 20 -96 0z"/>
<path d="M7694 2046 c-10 -25 1 -129 14 -134 7 -2 12 5 12 17 0 33 17 33 48 0
30 -32 52 -27 28 7 -12 15 -11 22 1 41 20 30 10 69 -19 77 -39 10 -78 7 -84
-8z m81 -41 c0 -31 -49 -28 -53 3 -3 20 0 23 25 20 20 -2 28 -8 28 -23z"/>
<path d="M7920 1985 c0 -41 4 -75 9 -75 10 0 22 116 14 136 -13 34 -23 8 -23
-61z"/>
<path d="M8051 2051 c-12 -8 -9 -11 12 -16 26 -7 27 -10 27 -66 0 -46 3 -59
15 -59 12 0 15 13 15 59 0 52 3 60 20 63 12 2 22 8 23 13 3 13 -94 18 -112 6z"/>
<path d="M8293 2048 c-14 -18 -54 -130 -49 -135 2 -3 18 5 35 18 l31 23 31
-23 c17 -13 32 -21 35 -19 7 7 -51 141 -63 145 -5 2 -14 -2 -20 -9z m32 -78
c-7 -12 -35 -14 -35 -2 0 4 3 17 6 30 7 23 7 23 21 2 8 -11 11 -25 8 -30z"/>
<path d="M8967 2054 c-10 -11 3 -24 23 -24 16 0 19 -9 22 -55 4 -71 22 -72 26
-1 2 45 6 55 23 59 36 10 10 27 -40 27 -26 0 -51 -3 -54 -6z"/>
<path d="M9205 2031 c-20 -40 -45 -114 -40 -120 3 -2 13 3 22 11 32 28 61 31
75 9 16 -26 43 -29 33 -3 -4 9 -16 40 -27 69 -25 63 -43 72 -63 34z m38 -40
c5 -22 0 -31 -20 -31 -13 0 -18 31 -6 43 11 12 21 8 26 -12z"/>
<path d="M9546 2044 c-29 -28 -20 -54 24 -71 49 -20 47 -39 -4 -36 -41 3 -48
-12 -13 -28 16 -7 31 -7 50 0 53 20 47 68 -11 83 -44 12 -44 41 0 36 37 -4 50
17 16 26 -35 9 -45 7 -62 -10z"/>
<path d="M9773 2053 l-33 -4 0 -70 c0 -59 3 -69 18 -70 9 0 26 -2 37 -4 26 -5
55 3 55 16 0 6 -12 10 -27 9 -46 -3 -53 -1 -53 20 0 16 7 20 35 20 19 0 35 5
35 11 0 6 -12 9 -26 7 -17 -2 -31 3 -38 14 -14 23 -2 32 39 30 26 -2 35 1 35
13 0 15 -10 16 -77 8z"/>
<path d="M9972 2051 c-18 -11 -12 -133 7 -139 11 -4 12 3 7 31 -8 44 8 56 30
22 21 -32 29 -32 44 5 17 41 26 38 28 -12 3 -80 25 -63 28 22 3 79 -16 98 -47
46 -11 -20 -25 -36 -30 -36 -5 0 -19 16 -30 35 -12 19 -22 35 -22 35 -1 0 -8
-4 -15 -9z"/>
<path d="M10330 2007 c0 -58 -15 -81 -47 -75 -14 3 -19 15 -21 61 -2 42 -7 57
-17 57 -11 0 -15 -13 -15 -52 1 -78 31 -107 90 -87 34 12 43 35 38 99 -5 67
-28 64 -28 -3z"/>
<path d="M10513 2053 c-7 -3 -13 -10 -13 -16 0 -6 -10 -35 -22 -64 -20 -50
-18 -88 3 -50 13 23 62 22 84 -3 31 -35 35 -11 8 53 -30 70 -42 87 -60 80z
m22 -64 c8 -25 3 -31 -17 -24 -10 4 -14 14 -11 26 7 25 20 24 28 -2z"/>
<path d="M4809 2003 c-12 -27 -26 -56 -30 -65 -12 -24 -11 -28 4 -28 7 0 20 9
30 20 9 11 23 20 30 20 8 0 22 -9 32 -20 10 -11 24 -20 31 -20 14 0 15 -3 -31
103 -9 20 -23 37 -31 37 -8 0 -24 -21 -35 -47z m55 -35 c-7 -11 -32 -10 -39 2
-3 5 0 16 7 24 11 11 15 11 24 -3 7 -9 10 -19 8 -23z"/>
<path d="M5895 1985 c-29 -67 -28 -90 2 -63 32 28 61 31 75 9 14 -23 43 -29
35 -8 -61 154 -71 159 -112 62z m65 -7 c0 -10 -29 -23 -36 -15 -3 2 -2 17 2
32 7 26 8 27 20 10 8 -11 14 -23 14 -27z"/>
<path d="M6791 2023 c-7 -16 -19 -47 -26 -70 -11 -36 -11 -43 1 -43 8 0 14 4
14 10 0 5 10 14 21 21 18 9 27 7 51 -11 16 -12 31 -20 34 -18 2 3 -8 34 -22
71 -29 74 -52 87 -73 40z m43 -29 c10 -26 7 -34 -14 -34 -11 0 -20 4 -20 9 0
17 12 41 20 41 4 0 11 -7 14 -16z"/>
<path d="M8610 1980 c0 -76 9 -88 28 -38 l12 32 20 -24 c11 -13 20 -27 20 -32
0 -4 9 -8 20 -8 19 0 19 2 -5 40 l-26 41 21 29 c27 38 4 42 -30 5 -13 -14 -28
-25 -33 -25 -5 0 -7 11 -5 25 4 17 1 25 -8 25 -11 0 -14 -18 -14 -70z"/>
<path d="M8834 1994 c-5 -45 -3 -59 10 -72 15 -15 16 -11 16 56 0 85 -16 95
-26 16z"/>
<path d="M3278 1981 c-146 -4 -269 -9 -273 -12 -14 -14 658 -38 709 -25 29 7
35 30 10 40 -9 3 -52 5 -97 4 -45 -1 -202 -4 -349 -7z"/>
<path d="M10760 1975 c-10 -12 -8 -17 14 -26 20 -9 115 -9 413 0 213 6 388 13
390 15 6 6 -226 15 -533 21 -232 4 -273 3 -284 -10z"/>
<path d="M6984 1917 c-9 -24 6 -44 18 -22 7 11 6 21 -1 28 -7 7 -12 6 -17 -6z"/>
</g>
</svg>
